<?xml version="1.0" encoding="UTF-8" standalone="no"?>
<!-- Created with Inkscape (http://www.inkscape.org/) -->

<svg
   width="24"
   height="24"
   viewBox="0 0 6.3499999 6.3500001"
   version="1.1"
   id="svg8"
   inkscape:version="1.1 (c4e8f9e, 2021-05-24)"
   sodipodi:docname="logo-icon.svg"
   xmlns:inkscape="http://www.inkscape.org/namespaces/inkscape"
   xmlns:sodipodi="http://sodipodi.sourceforge.net/DTD/sodipodi-0.dtd"
   xmlns="http://www.w3.org/2000/svg"
   xmlns:svg="http://www.w3.org/2000/svg"
   xmlns:rdf="http://www.w3.org/1999/02/22-rdf-syntax-ns#"
   xmlns:cc="http://creativecommons.org/ns#"
   xmlns:dc="http://purl.org/dc/elements/1.1/">
  <defs
     id="defs2" />
  <sodipodi:namedview
     id="base"
     pagecolor="#ffffff"
     bordercolor="#666666"
     borderopacity="1.0"
     inkscape:pageopacity="0.0"
     inkscape:pageshadow="2"
     inkscape:zoom="19.499313"
     inkscape:cx="15.769786"
     inkscape:cy="16.385192"
     inkscape:document-units="mm"
     inkscape:current-layer="layer1"
     showgrid="false"
     units="px"
     fit-margin-left="4"
     fit-margin-top="4"
     fit-margin-right="4"
     fit-margin-bottom="4"
     inkscape:window-width="1920"
     inkscape:window-height="1027"
     inkscape:window-x="0"
     inkscape:window-y="25"
     inkscape:window-maximized="1"
     inkscape:pagecheckerboard="0" />
  <metadata
     id="metadata5">
    <rdf:RDF>
      <cc:Work
         rdf:about="">
        <dc:format>image/svg+xml</dc:format>
        <dc:type
           rdf:resource="http://purl.org/dc/dcmitype/StillImage" />
      </cc:Work>
    </rdf:RDF>
  </metadata>
  <g
     inkscape:label="Capa 1"
     inkscape:groupmode="layer"
     id="layer1"
     transform="translate(-107.29246,-92.644283)">
    <path
       id="path4590"
       d="m 133.65883,90.523933 c 0,-0.02325 0,-0.04982 0,-0.07971 -0.0531,0 -0.0996,0 -0.14612,0 -0.13284,0 -0.13284,0 -0.16605,0.126198 0,0.0033 -0.007,0.0066 -0.0133,0.01329 -0.11623,-0.119557 -0.25904,-0.179335 -0.42509,-0.169373 -0.16937,0.01 -0.31217,0.07638 -0.42177,0.202583 -0.19594,0.225829 -0.19594,0.584499 -0.003,0.813648 0.093,0.109595 0.20922,0.182657 0.35203,0.202583 0.18929,0.02657 0.36199,-0.01 0.50147,-0.179335 0,0.06974 0.003,0.122878 0,0.172692 -0.0166,0.152768 -0.11624,0.252398 -0.27233,0.275644 -0.15608,0.02325 -0.29889,-0.04649 -0.35866,-0.172692 -0.007,-0.01328 -0.0199,-0.03653 -0.0332,-0.03653 -0.0963,-0.0033 -0.19594,0 -0.29225,0 0.0232,0.232471 0.1594,0.385238 0.40184,0.454979 0.41845,0.122878 0.90332,-0.0797 0.88007,-0.647598 -0.0133,-0.318817 -0.003,-0.647598 -0.003,-0.976378 z m -0.65424,0.840216 c -0.19594,0 -0.33542,-0.136162 -0.33542,-0.32878 -0.003,-0.19594 0.13616,-0.335423 0.33542,-0.335423 0.19594,0 0.33542,0.136162 0.33542,0.332101 -0.003,0.189299 -0.1428,0.332102 -0.33542,0.332102 z"
       class="st3"
       style="fill:#162269;stroke-width:0.0332101" />
    <path
       id="path4592"
       d="m 130.80276,90.019138 c -0.0166,-0.04317 -0.0399,-0.0631 -0.0863,-0.05978 -0.0731,0.0033 -0.14612,0.0066 -0.22251,0 -0.0565,-0.0033 -0.0764,0.0166 -0.0963,0.06642 -0.20258,0.514757 -0.40848,1.029515 -0.61438,1.544272 -0.007,0.01993 -0.0133,0.03985 -0.0232,0.06974 0.0963,0 0.1893,-0.0033 0.27896,0 0.0432,0 0.0631,-0.01661 0.0764,-0.05646 0.0365,-0.09631 0.0764,-0.189297 0.10959,-0.285607 0.0133,-0.03653 0.0299,-0.04649 0.0697,-0.04649 0.20258,0 0.40517,0.0033 0.61107,0 0.0432,0 0.0598,0.01328 0.0731,0.04981 0.0365,0.09631 0.0731,0.19594 0.11292,0.29225 0.007,0.0166 0.0299,0.03985 0.0498,0.04317 0.0996,0.0033 0.19926,0 0.30886,0 -0.0233,-0.0631 -0.0465,-0.116235 -0.0664,-0.169373 -0.19926,-0.478226 -0.39187,-0.963094 -0.58117,-1.447962 z m -0.46162,0.9797 c 0.083,-0.215866 0.16605,-0.425091 0.25571,-0.65424 0.0897,0.225828 0.16938,0.438374 0.25572,0.65424 -0.17601,0 -0.33874,0 -0.51143,0 z"
       class="st3"
       style="fill:#162269;stroke-width:0.0332101" />
    <path
       id="path4594"
       d="m 130.33782,89.650504 c 0.2059,0.06974 0.41844,0.06974 0.62435,-0.0066 0.23247,-0.08303 0.36863,-0.255718 0.41512,-0.508116 -0.10627,0 -0.20258,0 -0.30221,0 -0.0365,0 -0.0498,0.0166 -0.0664,0.04649 -0.0365,0.05646 -0.0731,0.119556 -0.1262,0.159408 -0.18598,0.132841 -0.49151,0.07306 -0.62767,-0.112914 -0.14945,-0.202582 -0.14613,-0.601104 0.003,-0.803686 0.10959,-0.146125 0.26236,-0.185977 0.43505,-0.169372 0.15941,0.0166 0.27233,0.09631 0.32214,0.252397 0.003,0.01328 0.0199,0.03321 0.0332,0.03321 0.10628,0.0033 0.21255,0 0.32214,0 -0.003,-0.01993 -0.003,-0.03653 -0.007,-0.04649 -0.0697,-0.305534 -0.27564,-0.488189 -0.62103,-0.524721 -0.43837,-0.04982 -0.78044,0.16273 -0.89335,0.577857 -0.0432,0.159409 -0.0498,0.322139 -0.0166,0.481548 0.0598,0.298892 0.21255,0.521399 0.5048,0.621029 z"
       class="st3"
       style="fill:#162269;stroke-width:0.0332101" />
    <path
       id="path4596"
       d="m 134.56547,90.427622 c -0.38524,-0.05978 -0.68081,0.146125 -0.74059,0.518079 -0.0564,0.348707 0.15609,0.657561 0.48487,0.707377 0.33542,0.05314 0.64428,-0.122878 0.69077,-0.401843 -0.0863,0 -0.16937,0 -0.25239,0 -0.0432,0 -0.0664,0.01 -0.093,0.04649 -0.0697,0.09631 -0.20259,0.129519 -0.32546,0.08303 -0.11292,-0.04317 -0.18266,-0.142804 -0.17934,-0.262361 0.29557,0 0.59114,0 0.88339,0 0.0531,-0.345386 -0.14944,-0.640956 -0.46826,-0.690772 z m 0.13948,0.48819 c -0.18265,0 -0.36199,0 -0.55129,0 0.0199,-0.149446 0.15941,-0.252397 0.3155,-0.235792 0.1428,0.01328 0.24243,0.112914 0.23579,0.235792 z"
       class="st3"
       style="fill:#162269;stroke-width:0.0332101" />
    <path
       id="path4598"
       d="m 138.88279,90.454191 c -0.19926,-0.08303 -0.42177,-0.02989 -0.56789,0.12952 -0.007,0.0066 -0.0133,0.01328 -0.0299,0.02657 -0.01,-0.05978 -0.0166,-0.112914 -0.0266,-0.16273 -0.0963,0 -0.18265,0 -0.27564,0 0,0.398522 0,0.790403 0,1.185604 0.10627,0 0.20922,0 0.31549,0 0,-0.02657 0,-0.05314 0,-0.07638 0,-0.185978 -0.003,-0.371955 0.003,-0.55461 0,-0.05646 0.0166,-0.119557 0.0432,-0.172694 0.0531,-0.112914 0.18266,-0.16273 0.30886,-0.136161 0.10295,0.02325 0.16605,0.106273 0.17601,0.232471 0.003,0.02989 0.003,0.0631 0.003,0.09299 0,0.182656 0,0.361991 0,0.541326 0,0.02325 0,0.04649 0,0.07306 0.10959,0 0.21254,0 0.32878,0 -0.01,-0.292249 -0.01,-0.577857 -0.0332,-0.863465 -0.0133,-0.142804 -0.10295,-0.255718 -0.24576,-0.315496 z"
       class="st3"
       style="fill:#162269;stroke-width:0.0332101" />
    <path
       id="path4600"
       d="m 136.04332,90.437586 c -0.20922,-0.04982 -0.39188,-0.0066 -0.538,0.182656 -0.01,-0.06642 -0.0166,-0.116236 -0.0232,-0.169373 -0.093,0 -0.18266,0 -0.27564,0 0,0.398522 0,0.790403 0,1.185604 0.10627,0 0.20922,0 0.31549,0 0,-0.03321 0,-0.05646 0,-0.08303 0,-0.195939 -0.003,-0.391879 0.007,-0.58782 0.007,-0.169372 0.13284,-0.275644 0.29557,-0.272323 0.14613,0.0033 0.22583,0.102951 0.22915,0.278965 0,0.01993 0,0.03985 0,0.05978 0,0.179335 0,0.355349 0,0.534684 0,0.02325 0,0.04649 0,0.06974 0.11292,0 0.21255,0 0.3155,0 0,-0.262361 0.01,-0.518079 -0.003,-0.773797 -0.0133,-0.232472 -0.13284,-0.381917 -0.32213,-0.42509 z"
       class="st3"
       style="fill:#162269;stroke-width:0.0332101" />
    <g
       id="g1442"
       transform="translate(-0.09978398,-0.84975473)"
       style="fill:#ffffff">
      <path
         id="path4586"
         d="m 113.13405,94.851443 c -0.15609,-0.0066 -0.31217,-0.0033 -0.47158,-0.0033 0.0232,0.122877 0.0498,0.232471 0.0631,0.345385 0.0863,0.873428 -0.60111,1.643904 -1.4845,1.66383 -0.63763,0.0166 -1.22213,-0.368633 -1.45792,-0.966417 -0.0199,-0.04981 -0.0432,-0.06642 -0.0963,-0.06642 -0.54465,0.0033 -1.08598,0 -1.63062,0 -0.0199,0 -0.0432,0 -0.0697,0 0.003,0.02657 0.003,0.04981 0.007,0.06974 0.29224,1.381543 1.65386,2.294823 3.04869,2.039105 1.24538,-0.22583 2.1487,-1.285235 2.1653,-2.547221 0.003,-0.156088 -0.0199,-0.315496 -0.0332,-0.471584 0,-0.01993 -0.0233,-0.0631 -0.0399,-0.0631 z"
         class="st3"
         style="fill:#ffffff;stroke-width:0.0332101" />
      <path
         id="path4588"
         d="m 111.18794,96.362506 c 0.58117,0.0033 1.0428,-0.451659 1.04944,-1.026195 0.003,-0.564573 -0.4583,-1.026194 -1.02288,-1.032836 -0.57453,-0.0033 -1.0428,0.454979 -1.04612,1.026194 -0.003,0.564573 0.45498,1.029516 1.01956,1.032837 z m 0.0133,-1.570842 c 0.30553,0 0.54797,0.242435 0.54797,0.547968 0,0.298892 -0.24908,0.541326 -0.54797,0.541326 -0.29889,0 -0.54465,-0.245756 -0.54465,-0.544647 0,-0.302212 0.24244,-0.541325 0.54465,-0.544647 z"
         class="st3"
         style="fill:#ffffff;stroke-width:0.0332101" />
      <path
         id="path4602"
         d="m 109.73665,94.848122 c -0.0199,0 -0.0432,0 -0.0697,0 -0.53468,0 -1.06937,0 -1.60405,0 -0.0133,0 -0.0299,-0.0033 -0.0399,0 -0.0199,0.01 -0.0465,0.02657 -0.0465,0.03985 -0.0166,0.146125 -0.0332,0.288928 -0.0498,0.441695 0.59114,0 1.16235,0 1.73357,0 0.0266,-0.159409 0.0531,-0.315496 0.0764,-0.481547 z"
         class="st3"
         style="fill:#ffffff;stroke-width:0.0332101" />
    </g>
    <path
       id="path4604"
       d="m 136.97653,90.135373 c -0.0963,0 -0.18598,0 -0.28229,0 -0.01,0.08303 -0.0233,0.16273 -0.0266,0.242434 -0.003,0.05646 -0.0266,0.07306 -0.0764,0.06974 -0.0432,-0.0033 -0.0863,0 -0.12952,0 0,0.09631 0,0.182656 0,0.272324 0.0664,0 0.12952,0 0.19594,0 0,0.03653 0,0.06974 0,0.09631 0.003,0.169371 0,0.338743 0.01,0.508115 0.007,0.126199 0.0697,0.219187 0.18597,0.272324 0.13949,0.05978 0.28561,0.04317 0.43174,0.03985 0,-0.09631 0,-0.182656 0,-0.272324 -0.0598,0 -0.11292,0 -0.16606,0 -0.10295,-0.0033 -0.13616,-0.03321 -0.13948,-0.136162 -0.003,-0.109593 0,-0.219187 -0.003,-0.32878 0,-0.05978 0,-0.119556 0,-0.185977 0.11291,0 0.21254,0 0.31549,0 0,-0.09299 0,-0.176014 0,-0.269002 -0.10627,0 -0.2059,0 -0.31549,0 0,-0.106273 0,-0.205903 0,-0.308855 z"
       class="st3"
       style="fill:#162269;stroke-width:0.0332101" />
    <path
       id="path4606"
       d="m 133.21714,89.594047 c 0,-0.146124 -0.003,-0.288928 0,-0.435053 0.003,-0.199261 0.15276,-0.348707 0.35535,-0.352028 0.0232,0 0.0465,0 0.0731,0 0,-0.119556 0,-0.22915 0,-0.342064 -0.17934,0 -0.31882,0.07306 -0.43173,0.222508 -0.0133,-0.07638 -0.0199,-0.139483 -0.0299,-0.202582 -0.0963,0 -0.1893,0 -0.28229,0 0,0.398522 0,0.790401 0,1.185602 0.10627,0 0.2059,0 0.3155,0 0,-0.02989 0,-0.05314 0,-0.07638 z"
       class="st3"
       style="fill:#162269;stroke-width:0.0332101" />
    <path
       id="path4608"
       d="m 134.09056,89.590726 c 0,-0.142803 0,-0.285607 0,-0.428411 0.003,-0.176014 0.11292,-0.308854 0.28561,-0.348707 0.0465,-0.01 0.0897,-0.01 0.13948,-0.0166 0,-0.112914 0,-0.225829 0,-0.338743 -0.18265,0 -0.31549,0.07638 -0.43173,0.222508 -0.01,-0.07971 -0.0199,-0.139483 -0.0266,-0.202582 -0.0963,0 -0.18929,0 -0.28228,0 0,0.398522 0,0.790402 0,1.185603 0.10627,0 0.20922,0 0.31549,0 0,-0.02325 0,-0.0465 0,-0.07306 z"
       class="st3"
       style="fill:#162269;stroke-width:0.0332101" />
    <path
       id="path4610"
       d="m 131.84888,90.656773 c -0.007,-0.06642 -0.01,-0.112914 -0.0199,-0.16273 -0.003,-0.0166 -0.0199,-0.0465 -0.0365,-0.0465 -0.083,-0.0033 -0.16937,-0.0033 -0.2524,-0.0033 0,0.405163 0,0.797044 0,1.188923 0.10628,0 0.20591,0 0.3155,0 0,-0.176013 0,-0.342064 0,-0.508116 0,-0.176013 0.11291,-0.308854 0.28561,-0.345385 0.0465,-0.01 0.0897,-0.01 0.13948,-0.01328 0,-0.112914 0,-0.222507 0,-0.335422 -0.17934,-0.0033 -0.3155,0.07638 -0.43173,0.225829 z"
       class="st3"
       style="fill:#162269;stroke-width:0.0332101" />
    <path
       id="path4612"
       d="m 137.50125,90.444228 c -0.0531,-0.0033 -0.0697,0.01328 -0.0697,0.06642 0.003,0.355348 0,0.707377 0,1.062725 0,0.01993 0.003,0.04317 0.003,0.0631 0.1096,0 0.20923,0 0.31218,0 0,-0.395201 0,-0.790403 0,-1.188925 -0.0797,-0.0033 -0.16273,0 -0.24576,-0.0033 z"
       class="st3"
       style="fill:#162269;stroke-width:0.0332101" />
    <path
       id="path4614"
       d="m 137.60088,89.916186 c -0.11956,0 -0.20258,0.07306 -0.20258,0.182656 0,0.106273 0.083,0.179335 0.19594,0.179335 0.11291,0 0.19594,-0.07306 0.19594,-0.179335 0.003,-0.109594 -0.0731,-0.179335 -0.1893,-0.182656 z"
       class="st3"
       style="fill:#162269;stroke-width:0.0332101" />
    <g
       id="g4634"
       transform="matrix(0.03321017,0,0,0.03321017,123.21423,87.830587)">
      <path
         id="path4616"
         d="m 403.5,27.6 c 2.2,0.9 4,2.7 4.8,5.1 0.5,1.5 0.7,3.1 0.8,3.9 -0.1,3.5 -0.5,6.2 -2.4,8.3 -1.8,2 -4,3.1 -6.6,2.9 2.6,0.2 4.8,-0.9 6.6,-2.9 1.9,-2.1 2.3,-4.8 2.4,-8.3 -0.2,-0.8 -0.4,-2.4 -0.8,-3.9 -0.8,-2.4 -2.6,-4.2 -4.8,-5.1 z"
         class="st4"
         style="fill:none" />
      <path
         id="path4618"
         d="m 401.5,27.1 c 0.1,0 0.2,0 0.4,0.1 -0.1,-0.1 -0.3,-0.1 -0.4,-0.1 z"
         class="st4"
         style="fill:none" />
      <path
         id="path4620"
         d="m 402.5,27.3 c 0.3,0.1 0.6,0.2 0.9,0.3 -0.3,-0.1 -0.6,-0.2 -0.9,-0.3 z"
         class="st4"
         style="fill:none" />
      <path
         id="path4622"
         d="m 400.4,27 c 0,0 0,0 0,0 0,0 0,0 0,0 0,0 0,0 0,0 z"
         class="st4"
         style="fill:none" />
      <path
         id="path4624"
         d="m 400.6,18.6 c -10.7,0 -18.5,8 -18.5,18.9 0,10.9 7.7,18.8 18.3,18.8 10.7,0 18.5,-7.9 18.5,-18.9 0,-10.8 -7.8,-18.7 -18.3,-18.8 z m 6.2,26.3 c -1.8,2 -4,3.1 -6.6,2.9 -0.4,0 -0.8,-0.1 -1.2,-0.1 -3.2,-0.6 -5.4,-2.5 -6.5,-5.7 -1,-3 -1,-6.1 0,-9.1 1.1,-3.5 4.2,-5.8 7.8,-5.9 0,0 0,0 0,0 0,0 0,0 0,0 0,0 0,0 0,0 0.4,0 0.8,0 1.1,0.1 0.1,0 0.2,0 0.4,0.1 0.2,0 0.4,0.1 0.6,0.1 0.3,0.1 0.6,0.2 0.9,0.3 0,0 0.1,0 0.1,0 2.2,0.9 4,2.7 4.8,5.1 0.5,1.5 0.7,3.1 0.8,3.9 0,3.5 -0.3,6.2 -2.2,8.3 z"
         class="st3"
         style="fill:#162269" />
      <path
         id="path4626"
         d="m 400.4,27 c 0.4,0 0.8,0 1.1,0.1 C 401.1,27 400.8,27 400.4,27 Z"
         class="st3"
         style="fill:#162269" />
      <path
         id="path4628"
         d="m 392.6,42 c -1,-3 -1,-6.1 0,-9.1 1.1,-3.5 4.2,-5.8 7.8,-5.9 0,0 0,0 0,0 -3.6,0.1 -6.7,2.4 -7.8,5.9 -1,3 -1.1,6.1 0,9.1 1,3.2 3.2,5.1 6.4,5.7 0.4,0.1 0.8,0.1 1.2,0.1 -0.4,0 -0.8,-0.1 -1.1,-0.1 -3.3,-0.6 -5.5,-2.6 -6.5,-5.7 z"
         class="st3"
         style="fill:#162269" />
      <path
         id="path4630"
         d="m 403.4,27.6 c 0,0 0.1,0 0.1,0 0,0 -0.1,0 -0.1,0 z"
         class="st3"
         style="fill:#162269" />
      <path
         id="path4632"
         d="m 401.9,27.2 c 0.2,0 0.4,0.1 0.6,0.1 -0.2,-0.1 -0.4,-0.1 -0.6,-0.1 z"
         class="st3"
         style="fill:#162269" />
    </g>
    <path
       id="path4636"
       d="m 132.09463,89.70032 c 0.35535,0 0.61439,-0.262361 0.61439,-0.627672 0,-0.361991 -0.25572,-0.624352 -0.60775,-0.624352 -0.35534,0 -0.61438,0.265682 -0.61438,0.627673 0,0.358669 0.25571,0.624351 0.60774,0.624351 z m -0.25904,-0.777118 c 0.0365,-0.116236 0.13949,-0.192619 0.25904,-0.19594 0.11292,-0.0033 0.22583,0.07306 0.26568,0.189298 0.0166,0.04981 0.0233,0.102951 0.0266,0.12952 -0.003,0.116235 -0.0166,0.205902 -0.0797,0.275644 -0.0697,0.07638 -0.15277,0.112914 -0.25904,0.09299 -0.10627,-0.01993 -0.18266,-0.08635 -0.21587,-0.189297 -0.0299,-0.09963 -0.0266,-0.202583 0.003,-0.302213 z"
       class="st3"
       style="fill:#162269;stroke-width:0.0332101" />
    <path
       id="path4638"
       d="m 139.91231,91.673004 c 0.35535,0 0.61439,-0.262361 0.61439,-0.627673 0,-0.36199 -0.25572,-0.62435 -0.60775,-0.62435 -0.35535,0 -0.61439,0.26568 -0.61439,0.627671 -0.003,0.35867 0.25572,0.621031 0.60775,0.624352 z m -0.26236,-0.777118 c 0.0365,-0.116235 0.13948,-0.192619 0.25904,-0.19594 0.11291,-0.0033 0.22582,0.07306 0.26568,0.189298 0.0166,0.04981 0.0232,0.102951 0.0266,0.12952 -0.003,0.116235 -0.0166,0.205902 -0.0797,0.275644 -0.0697,0.07638 -0.15277,0.112914 -0.25904,0.09299 -0.10627,-0.01993 -0.18265,-0.08635 -0.21586,-0.189297 -0.0266,-0.09963 -0.0266,-0.202583 0.003,-0.302213 z"
       class="st3"
       style="fill:#162269;stroke-width:0.0332101" />
    <path
       id="path4640"
       d="m 135.25624,88.451617 c -0.35867,-0.03985 -0.6476,0.202583 -0.67749,0.574536 -0.0299,0.371954 0.20591,0.65092 0.57454,0.674167 0.28893,0.01993 0.58782,-0.185977 0.59778,-0.415127 -0.083,0 -0.16605,0 -0.24575,0 -0.0398,0 -0.0697,0.0066 -0.093,0.04317 -0.0697,0.09631 -0.19594,0.129519 -0.31882,0.08967 -0.11291,-0.03653 -0.18598,-0.136161 -0.1893,-0.26236 0.29225,0 0.58782,0 0.88671,0 0.0498,-0.385238 -0.16273,-0.664203 -0.53468,-0.704056 z m -0.34206,0.494832 c 0,-0.126199 0.12287,-0.22915 0.27564,-0.232471 0.15277,-0.0033 0.26568,0.08967 0.27565,0.232471 -0.18598,0 -0.36864,0 -0.55129,0 z"
       class="st3"
       style="fill:#162269;stroke-width:0.0332101" />
  </g>
  <style
     type="text/css"
     id="style4518">
	.st0{fill-rule:evenodd;clip-rule:evenodd;fill:#00B1F2;}
	.st1{fill-rule:evenodd;clip-rule:evenodd;fill:#FFFFFF;}
	.st2{fill-rule:evenodd;clip-rule:evenodd;fill:#475992;}
	.st3{fill:#162269;}
	.st4{fill:none;}
</style>
</svg>
